<svg width="431" height="610" viewBox="0 0 431 610" fill="none" xmlns="http://www.w3.org/2000/svg">
<g style="mix-blend-mode:luminosity">
<path d="M227.438 525.551H11.8023L0 178.762H215.636L227.438 525.551Z" fill="#407BFF"/>
<path d="M238.197 514.79H22.5616L10.7578 168H226.394L238.197 514.79Z" fill="#407BFF"/>
<path opacity="0.3" d="M238.197 514.79H22.5616L10.7578 168H226.394L238.197 514.79Z" fill="white"/>
<path d="M165.966 310.719C189.056 287.234 188.076 248.829 163.777 224.939C139.479 201.049 101.062 200.721 77.9724 224.207C54.8823 247.692 55.862 286.097 80.1607 309.987C104.459 333.876 142.876 334.204 165.966 310.719Z" fill="#407BFF"/>
<path d="M172.019 267.455C172.313 276.101 170.397 284.217 166.781 291.301C158.868 306.905 142.694 317.516 123.662 317.516C104.631 317.516 87.7338 306.905 78.7576 291.301C74.6605 284.219 72.1914 276.102 71.8968 267.455C70.9553 239.802 92.6024 217.395 120.254 217.395C147.905 217.395 171.077 239.802 172.019 267.455Z" fill="white"/>
<path opacity="0.6" d="M166.777 291.299C158.864 306.903 142.69 317.514 123.658 317.514C104.627 317.514 87.7301 306.903 78.7539 291.299C91.071 282.88 106.027 277.965 122.311 277.965C138.597 277.965 153.888 282.879 166.777 291.299Z" fill="#407BFF"/>
<path opacity="0.6" d="M137.561 266.235C146.049 257.6 145.689 243.481 136.756 234.698C127.823 225.915 113.699 225.795 105.21 234.429C96.7215 243.063 97.0817 257.182 106.015 265.965C114.948 274.748 129.072 274.869 137.561 266.235Z" fill="#407BFF"/>
<path d="M194.887 389.205H57.3293L56.3984 361.871H193.957L194.887 389.205Z" fill="white"/>
<path d="M196.552 438.061H58.9934L58.0625 410.727H195.621L196.552 438.061Z" fill="white"/>
<path d="M143.455 414.48L110.306 418.987C108.944 419.173 108.048 420.413 108.306 421.732L112.658 443.945C112.918 445.272 114.241 446.202 115.603 446.018L148.751 441.511C150.114 441.326 151.011 440.094 150.751 438.767L146.399 416.553C146.141 415.234 144.817 414.295 143.455 414.48ZM133.93 436.984L127.929 437.801L127.325 430.632C126.047 430.068 125.123 428.936 124.861 427.601C124.436 425.429 125.903 423.417 128.131 423.113C130.351 422.811 132.509 424.331 132.936 426.503C133.197 427.838 132.752 429.156 131.757 430.029L133.93 436.984Z" fill="#407BFF"/>
<path d="M140.187 413.29C138.975 413.454 137.805 412.631 137.575 411.451L137.148 409.277C135.976 403.292 130.254 398.774 124.059 399.313C117.439 399.89 113 405.737 114.239 412.06L114.728 414.558C114.959 415.738 114.165 416.828 112.953 416.992C111.741 417.156 110.572 416.333 110.341 415.154L109.926 413.034C108.292 404.694 113.542 396.676 122.035 395.198C130.964 393.643 139.769 399.666 141.471 408.356L141.96 410.854C142.191 412.034 141.397 413.125 140.187 413.29Z" fill="#407BFF"/>
<path d="M173.844 476.336H84.3036L83.6992 458.543H173.238L173.844 476.336Z" fill="#407BFF"/>
<path d="M130.646 375.538C130.74 378.299 128.577 380.537 125.817 380.537C123.056 380.537 120.742 378.299 120.647 375.538C120.553 372.777 122.716 370.539 125.477 370.539C128.237 370.539 130.552 372.777 130.646 375.538Z" fill="#263238"/>
<path d="M109.118 375.538C109.213 378.299 107.05 380.537 104.289 380.537C101.529 380.537 99.2143 378.299 99.1201 375.538C99.026 372.777 101.188 370.539 103.949 370.539C106.71 370.539 109.024 372.777 109.118 375.538Z" fill="#263238"/>
<path d="M87.5949 375.538C87.6891 378.299 85.5267 380.537 82.7659 380.537C80.0052 380.537 77.6909 378.299 77.5967 375.538C77.5026 372.777 79.665 370.539 82.4258 370.539C85.1865 370.539 87.5008 372.777 87.5949 375.538Z" fill="#263238"/>
<path d="M152.165 375.538C152.259 378.299 150.097 380.537 147.336 380.537C144.575 380.537 142.261 378.299 142.167 375.538C142.073 372.777 144.235 370.539 146.996 370.539C149.757 370.539 152.071 372.777 152.165 375.538Z" fill="#263238"/>
<path d="M173.685 375.538C173.779 378.299 171.616 380.537 168.856 380.537C166.095 380.537 163.781 378.299 163.687 375.538C163.592 372.777 165.755 370.539 168.516 370.539C171.276 370.539 173.592 372.777 173.685 375.538Z" fill="#263238"/>
</g>
<g style="mix-blend-mode:luminosity">
<path d="M354.92 241.934C356.944 245.176 358.618 248.287 360.355 251.517C362.085 254.715 363.649 258.006 365.184 261.321C368.204 267.977 370.907 274.844 372.927 282.172C373.197 283.071 373.404 284.025 373.629 284.959L373.961 286.364L374.127 287.065L374.324 288.222C374.758 291.308 374.377 293.824 373.85 296.045C372.762 300.47 371.006 303.999 369.125 307.367C365.284 314.035 360.801 319.714 355.631 325.093L349.236 320.252C352.389 314.269 355.505 308 357.796 301.973C358.906 298.975 359.84 295.925 360.113 293.42C360.246 292.189 360.158 291.13 359.987 290.737L359.388 288.881C359.139 288.119 358.917 287.361 358.616 286.593C356.428 280.466 353.644 274.311 350.615 268.243C347.628 262.197 344.317 256.043 341.059 250.298L354.92 241.934Z" fill="#FF8B7B"/>
<path d="M350.858 318.074L343.887 321.775L351.902 331.16C351.902 331.16 356.905 327.775 357.132 322.606L350.858 318.074Z" fill="#FF8B7B"/>
<path d="M334.504 327.567L343.093 334.381L351.902 331.166L343.886 321.781L334.504 327.567Z" fill="#FF8B7B"/>
<path d="M305.167 192.249C304.995 193.093 304.409 193.687 303.856 193.574C303.305 193.462 302.997 192.688 303.169 191.843C303.34 190.999 303.926 190.405 304.479 190.518C305.03 190.63 305.339 191.406 305.167 192.249Z" fill="#263238"/>
<path d="M304.489 193.699C304.489 193.699 301.579 198.179 298.988 200.1C300.199 201.798 302.868 201.676 302.868 201.676L304.489 193.699Z" fill="#FF5652"/>
<path d="M301.754 223.488L301.819 213.535L315 215.128C315 215.128 314.774 223.687 307.414 226.203L301.754 223.488Z" fill="#FF8B7B"/>
<path d="M305.54 206.371L314.821 209.038L314.999 215.132L301.816 213.539L305.54 206.371Z" fill="#FF8B7B"/>
<path opacity="0.2" d="M314.824 209.036L305.545 206.363L303.738 209.826C303.966 215.702 307.55 220.531 312.303 222.703C314.885 219.317 314.991 215.125 314.991 215.125L314.824 209.036Z" fill="black"/>
<path d="M309.214 188.184C309.337 188.184 309.46 188.14 309.558 188.049C309.763 187.859 309.775 187.539 309.585 187.334C307.685 185.278 305.38 185.644 305.28 185.66C305.005 185.707 304.82 185.969 304.867 186.244C304.914 186.518 305.178 186.702 305.448 186.658C305.524 186.646 307.327 186.382 308.842 188.022C308.943 188.13 309.078 188.184 309.214 188.184Z" fill="#263238"/>
<path d="M328.616 207.617C327.084 215.432 326.159 226.258 331.626 231.472C331.626 231.472 329.489 239.399 314.971 239.399C299.004 239.399 307.29 232.443 307.29 232.443C313.926 230.383 313.868 222.824 312.349 216.751L328.616 207.617Z" fill="#FF8B7B"/>
<path d="M334.616 236.696C336.037 234.682 335.981 228.321 334.462 227.199C332.011 225.387 321.529 224.971 307.408 228.218C308.928 234.38 305.672 237.61 305.672 237.61L334.616 236.696Z" fill="#407BFF"/>
<path d="M382.074 597.205C381.002 597.438 379.931 597.498 379.415 597.06C379.198 596.874 378.981 596.522 379.17 595.884C379.271 595.549 379.489 595.298 379.822 595.14C381.265 594.452 384.578 595.802 384.719 595.86C384.812 595.898 384.873 595.986 384.876 596.086C384.879 596.186 384.822 596.278 384.733 596.322C384.226 596.566 383.151 596.973 382.074 597.205ZM380.337 595.499C380.227 595.523 380.129 595.555 380.041 595.597C379.84 595.693 379.714 595.834 379.656 596.029C379.521 596.484 379.69 596.627 379.746 596.674C380.32 597.163 382.454 596.712 383.955 596.11C382.935 595.752 381.286 595.294 380.337 595.499Z" fill="#407BFF"/>
<path d="M384.678 596.344C384.637 596.353 384.594 596.352 384.553 596.34C383.346 595.987 380.763 594.151 380.731 592.941C380.725 592.721 380.802 592.323 381.378 592.123C381.751 591.992 382.128 592.022 382.498 592.212C383.926 592.941 384.828 595.899 384.866 596.025C384.893 596.115 384.869 596.21 384.804 596.276C384.767 596.311 384.725 596.334 384.678 596.344ZM381.654 592.569C381.618 592.577 381.58 592.587 381.543 592.599C381.23 592.709 381.235 592.862 381.236 592.927C381.255 593.644 382.96 595.084 384.21 595.667C383.897 594.813 383.183 593.129 382.269 592.663C382.06 592.555 381.858 592.525 381.654 592.569Z" fill="#407BFF"/>
<path d="M303.219 599C301.847 599 300.523 598.811 300.08 598.195C299.925 597.979 299.802 597.612 300.101 597.089C300.268 596.796 300.538 596.597 300.903 596.497C302.681 596.014 306.414 598.14 306.572 598.231C306.663 598.284 306.711 598.388 306.695 598.491C306.678 598.594 306.597 598.678 306.494 598.699C305.812 598.836 304.496 599 303.219 599ZM301.524 596.928C301.346 596.928 301.181 596.947 301.035 596.986C300.801 597.05 300.64 597.165 300.54 597.34C300.361 597.654 300.426 597.811 300.491 597.899C300.988 598.59 303.688 598.605 305.674 598.324C304.682 597.817 302.772 596.928 301.524 596.928Z" fill="#407BFF"/>
<path d="M306.445 598.701C306.41 598.701 306.375 598.694 306.342 598.679C305.053 598.1 302.498 595.79 302.694 594.582C302.74 594.298 302.942 593.945 303.636 593.874C304.155 593.821 304.624 593.968 305.039 594.308C306.398 595.424 306.685 598.3 306.697 598.423C306.706 598.513 306.665 598.601 306.592 598.653C306.55 598.685 306.497 598.701 306.445 598.701ZM303.839 594.37C303.789 594.37 303.739 594.373 303.687 594.378C303.232 594.424 303.203 594.603 303.194 594.662C303.077 595.386 304.811 597.203 306.128 597.992C305.991 597.152 305.61 595.43 304.718 594.698C304.45 594.48 304.16 594.37 303.839 594.37Z" fill="#407BFF"/>
<path d="M318.19 598.449H307.508L306.445 573.715H317.125L318.19 598.449Z" fill="#FF8B7B"/>
<path d="M396.584 593.504L386.145 595.764L375.664 572.726L386.103 570.465L396.584 593.504Z" fill="#FF8B7B"/>
<path d="M385.143 594.717L396.871 592.177C397.297 592.085 397.732 592.302 397.914 592.698L401.985 601.532C402.407 602.448 401.849 603.523 400.858 603.719C396.749 604.534 394.708 604.725 389.55 605.842C386.376 606.528 379.213 608.274 374.832 609.222C370.546 610.15 368.94 605.962 370.648 605.181C378.311 601.681 381.512 598.598 383.586 595.725C383.961 595.207 384.519 594.852 385.143 594.717Z" fill="#263238"/>
<path d="M307.579 597.215H319.243C319.681 597.215 320.057 597.519 320.153 597.944L322.262 607.438C322.481 608.422 321.734 609.354 320.725 609.338C316.517 609.266 310.437 609.019 305.149 609.019C298.966 609.019 293.625 609.356 286.372 609.356C281.987 609.356 280.77 604.923 282.606 604.521C290.963 602.692 297.784 602.496 305.005 598.045C305.792 597.563 306.657 597.215 307.579 597.215Z" fill="#263238"/>
<path d="M350.754 233.885C360.764 236.18 369.019 261.737 369.019 261.737L348.917 277.059C348.917 277.059 341.538 270.103 338.255 257.32C334.812 243.924 340.517 231.539 350.754 233.885Z" fill="#407BFF"/>
<path opacity="0.4" d="M350.754 233.885C360.764 236.18 369.019 261.737 369.019 261.737L348.917 277.059C348.917 277.059 341.538 270.103 338.255 257.32C334.812 243.924 340.517 231.539 350.754 233.885Z" fill="black"/>
<path d="M298.111 264.386C295.613 267.081 293.122 269.479 290.542 271.947C289.262 273.174 287.953 274.377 286.615 275.556L284.599 277.323L284.092 277.761C283.846 277.972 283.546 278.223 283.226 278.468C282.558 278.961 281.826 279.537 280.292 280.2C279.48 280.513 278.435 280.928 276.599 280.964C275.726 280.978 274.541 280.826 273.41 280.398C272.254 279.969 271.137 279.228 270.371 278.466C268.783 276.87 268.303 275.47 267.99 274.533C267.7 273.567 267.617 272.878 267.557 272.275C267.462 271.096 267.523 270.299 267.588 269.561C267.659 268.832 267.759 268.202 267.87 267.607C268.317 265.265 268.948 263.376 269.633 261.484C270.327 259.612 271.096 257.814 271.993 255.996C272.957 254.061 273.888 252.658 274.816 251.041C278.569 244.769 282.972 239.041 287.651 233.643C292.432 228.281 297.449 223.379 303.218 218.887L308.808 224.638C304.881 229.89 301.021 235.52 297.453 241.071C293.889 246.664 290.583 252.359 287.738 258.149C287.082 259.58 286.272 261.147 285.817 262.343C285.284 263.651 284.795 265.056 284.392 266.439C283.994 267.806 283.674 269.23 283.53 270.275C283.496 270.527 283.48 270.747 283.48 270.875C283.475 270.992 283.505 271.057 283.49 270.733C283.475 270.557 283.458 270.295 283.294 269.739C283.109 269.21 282.821 268.21 281.542 266.916C280.925 266.31 279.999 265.675 279.039 265.332C278.111 264.969 277.141 264.863 276.482 264.866C275.077 264.898 274.45 265.185 274.034 265.333C273.29 265.655 273.275 265.742 273.282 265.709L273.866 265.177L275.689 263.507L279.32 260.107C281.723 257.842 284.14 255.428 286.423 253.186L298.111 264.386Z" fill="#FF8B7B"/>
<path opacity="0.2" d="M342.172 252.676C347.61 258.056 349.384 267.855 349.806 276.374L348.919 277.058C348.919 277.058 341.533 270.094 338.247 257.313C338.043 256.515 337.868 255.714 337.723 254.929L342.172 252.676Z" fill="black"/>
<path d="M287.488 244.591C285.305 256.13 283.938 279.826 290.278 326.752H347.408C347.801 317.983 342.29 275.202 350.75 233.88C350.75 233.88 340.957 231.915 331.625 231.466C324.326 231.113 313.757 230.881 307.339 231.467C304.66 231.712 302.032 232.099 299.689 232.514C293.511 233.605 288.655 238.427 287.488 244.591Z" fill="#407BFF"/>
<path opacity="0.4" d="M287.488 244.591C285.305 256.13 283.938 279.826 290.278 326.752H347.408C347.801 317.983 342.29 275.202 350.75 233.88C350.75 233.88 340.957 231.915 331.625 231.466C324.326 231.113 313.757 230.881 307.339 231.467C304.66 231.712 302.032 232.099 299.689 232.514C293.511 233.605 288.655 238.427 287.488 244.591Z" fill="black"/>
<path opacity="0.2" d="M296.233 261.648L285.909 259.176C285.589 265.428 285.56 273.177 286.026 282.759C290.781 277.35 296.843 268.917 296.233 261.648Z" fill="black"/>
<path opacity="0.2" d="M306.445 573.719L306.992 586.469H317.678L317.131 573.719H306.445Z" fill="black"/>
<path opacity="0.2" d="M386.109 570.469L375.664 572.73L381.072 584.605L391.516 582.344L386.109 570.469Z" fill="black"/>
<path d="M333.69 196.182C330.946 206.421 329.86 212.553 323.541 216.811C314.037 223.215 302.204 215.865 301.833 205.012C301.501 195.243 306.044 180.14 317.031 178.076C327.857 176.044 336.434 185.942 333.69 196.182Z" fill="#FF8B7B"/>
<path d="M309.724 196.577C309.217 195.204 306.851 184.622 309.071 181.875C311.293 179.128 336.574 181.104 340.313 184.783C346.514 190.887 342.212 196.334 335.423 203.362C330.316 208.646 330.12 214.603 327.545 215.477C323.031 217.009 316.032 215.569 314.629 210.751C313.226 205.934 309.724 196.577 309.724 196.577Z" fill="#263238"/>
<path d="M337.25 172.745C328.313 168.94 311.56 173.149 302.513 170.969C302.189 175.654 305.017 183.166 314.063 185.186C314.063 185.186 326.905 187.69 336.841 187.286C346.777 186.882 344.838 175.977 337.25 172.745Z" fill="#263238"/>
<path d="M338.645 185.102C338.645 185.102 344.171 185.725 348.093 183.289C349.771 187.327 340.585 188.435 338.645 185.102Z" fill="#263238"/>
<path d="M314.591 196.994C314.426 199.766 313.139 202.373 311.59 204.08C309.262 206.645 306.833 205.049 306.42 201.924C306.048 199.111 306.811 194.387 309.659 192.973C312.464 191.578 314.779 193.825 314.591 196.994Z" fill="#FF8B7B"/>
<path d="M310.543 326.758C310.543 326.758 322.664 408.385 329.32 438.966C336.608 472.455 375.683 583.251 375.683 583.251L394.803 579.111C394.803 579.111 367.48 488.82 361.363 442.002C356.665 406.039 347.408 326.758 347.408 326.758H310.543Z" fill="#407BFF"/>
<path d="M371.111 576.863C371.029 576.882 374.675 583.777 374.675 583.777L396.187 579.12L394.374 572.652L371.111 576.863Z" fill="#263238"/>
<path opacity="0.3" d="M318.205 355.839C332.221 358.588 330.738 410.857 329.052 437.74C325.01 418.737 319.093 382.17 315.051 356.217C315.98 355.753 317.028 355.607 318.205 355.839Z" fill="black"/>
<path d="M290.276 326.758C290.276 326.758 288.804 406.619 289.966 439.191C291.175 473.071 303.009 584.005 303.009 584.005H321.103C321.103 584.005 321.766 475.051 322.571 441.777C323.449 405.503 327.829 326.758 327.829 326.758H290.276Z" fill="#407BFF"/>
<path d="M299.532 576.793C299.448 576.793 300.552 584.305 300.552 584.305H322.562L323.158 577.601L299.532 576.793Z" fill="#263238"/>
<path d="M309.881 248.097C315.003 261.9 284.913 278.157 284.913 278.157L271.887 261.411C271.887 261.411 280.577 244.114 291.242 236.316C304.416 226.684 305.982 237.591 309.881 248.097Z" fill="#407BFF"/>
<path opacity="0.4" d="M309.881 248.097C315.003 261.9 284.913 278.157 284.913 278.157L271.887 261.411C271.887 261.411 280.577 244.114 291.242 236.316C304.416 226.684 305.982 237.591 309.881 248.097Z" fill="black"/>
</g>
<g style="mix-blend-mode:luminosity">
<path d="M364.092 84.9538C400.899 84.9538 430.738 65.9362 430.738 42.4769C430.738 19.0176 400.899 0 364.092 0C327.284 0 297.445 19.0176 297.445 42.4769C297.445 65.9362 327.284 84.9538 364.092 84.9538Z" fill="#407BFF"/>
<path d="M340.031 63.8549C336.328 63.8549 332.714 62.7468 329.574 60.6064C325.363 57.7364 322.566 53.3853 321.696 48.3545C320.037 38.7381 326.424 29.1568 335.933 26.9961C343.763 25.2213 351.716 28.5585 355.921 35.3382L398.706 26.5085C402.173 25.7938 405.695 27.8604 406.548 31.12C407 32.8523 406.733 34.6419 405.791 36.16C404.847 37.6781 403.366 38.7104 401.617 39.0724L400.494 39.3051C400.158 39.3734 399.885 39.5766 399.722 39.8758C399.559 40.1713 399.535 40.5203 399.657 40.8343L400.411 42.7956C400.922 44.1235 400.446 45.6176 399.273 46.3471C398.361 46.9159 397.74 47.891 397.617 48.9585C397.465 50.266 396.592 51.2725 395.393 51.52L394.512 51.701C393.317 51.9448 392.117 51.3722 391.457 50.2309C390.686 48.8975 389.153 48.2105 387.638 48.5245C386.118 48.8384 384.975 50.0776 384.79 51.6086C384.633 52.918 383.76 53.9227 382.565 54.1683L381.703 54.3456C380.519 54.5913 379.307 54.015 378.648 52.8756C378.107 51.9448 377.147 51.2947 376.077 51.1359C374.712 50.9327 373.68 49.7507 373.623 48.325L373.538 46.2252C373.525 45.8835 373.37 45.5806 373.102 45.3719C372.834 45.1614 372.513 45.0857 372.166 45.1522L358.532 47.9667C357.376 55.692 351.553 61.877 343.848 63.4671C342.576 63.7238 341.298 63.8549 340.031 63.8549ZM336.341 28.7967C327.774 30.7433 322.021 39.3771 323.518 48.0406C324.3 52.5745 326.821 56.4935 330.616 59.0809C334.411 61.6683 338.976 62.5825 343.477 61.6535C350.615 60.1797 355.965 54.3253 356.785 47.0858L356.861 46.4209L371.793 43.3386C372.655 43.1594 373.547 43.37 374.24 43.9129C374.932 44.4541 375.348 45.2685 375.385 46.1476L375.47 48.2474C375.49 48.7793 375.868 49.2355 376.349 49.3057C377.994 49.5513 379.413 50.5135 380.245 51.9466C380.449 52.2975 380.835 52.6355 381.331 52.5339L382.194 52.3566C382.683 52.255 382.91 51.7896 382.958 51.387C383.234 49.0674 384.966 47.1892 387.267 46.7146C389.561 46.2418 391.886 47.2834 393.057 49.3038C393.26 49.6547 393.644 49.9964 394.141 49.8911L395.024 49.7101C395.513 49.6085 395.738 49.145 395.783 48.7442C395.975 47.0969 396.895 45.6526 398.302 44.7791C398.716 44.5224 398.88 43.9554 398.69 43.4605L397.936 41.4973C397.62 40.6755 397.681 39.7631 398.104 38.9912C398.527 38.221 399.262 37.6762 400.125 37.4989L401.248 37.2662C402.496 37.0095 403.552 36.2708 404.225 35.1904C404.897 34.1082 405.089 32.8302 404.766 31.5928C404.156 29.2695 401.602 27.7994 399.081 28.3239L354.999 37.4214L354.667 36.8415C350.968 30.3794 343.614 27.1438 336.341 28.7967ZM340.055 57.0272C337.769 57.0272 335.532 56.3624 333.576 55.077C330.935 53.3391 329.131 50.6797 328.494 47.5863C327.853 44.4873 328.457 41.3274 330.195 38.6901C331.931 36.0547 334.592 34.2522 337.687 33.6132C340.786 32.9724 343.946 33.5744 346.582 35.3086C349.217 37.0409 351.019 39.704 351.658 42.8048C352.299 45.8983 351.695 49.0563 349.963 51.6936C348.229 54.3345 345.566 56.1407 342.465 56.7797C341.664 56.946 340.856 57.0272 340.055 57.0272ZM340.11 35.2107C339.429 35.2107 338.744 35.2809 338.06 35.4213C335.449 35.9605 333.203 37.4823 331.739 39.7059C330.274 41.9313 329.764 44.5963 330.304 47.2132C330.843 49.8228 332.365 52.0667 334.594 53.533C336.821 54.9976 339.486 55.5091 342.098 54.9699C344.713 54.4306 346.958 52.9051 348.423 50.6778C349.886 48.4524 350.393 45.7893 349.854 43.1761C349.313 40.5591 347.793 38.3115 345.57 36.8489C343.924 35.7722 342.038 35.2107 340.11 35.2107Z" fill="white"/>
<path opacity="0.6" d="M309.835 109.854C321.933 109.854 331.74 103.603 331.74 95.8917C331.74 88.1807 321.933 81.9297 309.835 81.9297C297.737 81.9297 287.93 88.1807 287.93 95.8917C287.93 103.603 297.737 109.854 309.835 109.854Z" fill="#407BFF"/>
<path opacity="0.3" d="M274.992 115.59C279.958 115.59 283.984 113.025 283.984 109.86C283.984 106.695 279.958 104.129 274.992 104.129C270.026 104.129 266 106.695 266 109.86C266 113.025 270.026 115.59 274.992 115.59Z" fill="#407BFF"/>
</g>
</svg>
